<svg width="167" height="167" viewBox="0 0 167 167" fill="none" xmlns="http://www.w3.org/2000/svg">
<path d="M89.71 73.1499C85.57 72.1149 81.43 70.0449 78.325 66.9399C75.22 65.9049 74.185 62.7999 74.185 60.7299C74.185 58.66 75.22 55.5549 77.29 54.5199C80.395 52.4499 83.5 50.3799 86.605 51.4149C92.815 51.4149 97.99 54.5199 101.095 58.6599L110.41 46.2399C107.305 43.1349 104.2 41.0649 101.095 38.9949C97.99 36.9249 93.85 35.8899 89.71 35.8899V21.4H77.29V35.8899C72.115 36.9249 66.94 40.0299 62.8 44.1699C58.66 49.3449 55.555 55.555 56.59 61.7649C56.59 67.9749 58.66 74.1849 62.8 78.3249C67.975 83.4999 75.22 86.6049 81.43 89.71C84.535 90.7449 88.675 92.8149 91.78 94.8849C93.85 96.9549 94.885 100.06 94.885 103.165C94.885 106.27 93.85 109.375 91.78 112.48C88.675 115.585 84.535 116.62 81.43 116.62C77.29 116.62 72.115 115.585 69.01 112.48C65.905 110.41 62.8 107.305 60.73 104.2L50.38 115.585C53.485 119.725 56.59 122.83 60.73 125.935C65.905 129.04 72.115 132.145 78.325 132.145V145.6H89.71V130.075C95.92 129.04 101.095 125.935 105.235 121.795C110.41 116.62 113.515 108.34 113.515 101.095C113.515 94.8849 111.445 87.6399 106.27 83.4999C101.095 78.3249 95.92 75.2199 89.71 73.1499ZM83.5 0.699951C37.96 0.699951 0.699997 37.9599 0.699997 83.4999C0.699997 129.04 37.96 166.3 83.5 166.3C129.04 166.3 166.3 129.04 166.3 83.4999C166.3 37.9599 129.04 0.699951 83.5 0.699951ZM83.5 154.915C44.17 154.915 12.085 122.83 12.085 83.4999C12.085 44.1699 44.17 12.0849 83.5 12.0849C122.83 12.0849 154.915 44.1699 154.915 83.4999C154.915 122.83 122.83 154.915 83.5 154.915Z" fill="#FDFDFD"/>
</svg>
