<svg width="32" height="32" viewBox="0 0 32 32" fill="none" xmlns="http://www.w3.org/2000/svg">
<path fill-rule="evenodd" clip-rule="evenodd" d="M16 1.33301C7.89999 1.33301 1.33333 7.89967 1.33333 15.9997C1.33333 24.0997 7.89999 30.6663 16 30.6663C24.1 30.6663 30.6667 24.0997 30.6667 15.9997C30.6667 7.89967 24.1 1.33301 16 1.33301ZM17.3333 21.333C17.3333 21.6866 17.1929 22.0258 16.9428 22.2758C16.6928 22.5259 16.3536 22.6663 16 22.6663C15.6464 22.6663 15.3072 22.5259 15.0572 22.2758C14.8071 22.0258 14.6667 21.6866 14.6667 21.333V17.333H10.6667C10.313 17.333 9.9739 17.1925 9.72385 16.9425C9.4738 16.6924 9.33333 16.3533 9.33333 15.9997C9.33333 15.6461 9.4738 15.3069 9.72385 15.0569C9.9739 14.8068 10.313 14.6663 10.6667 14.6663H14.6667V10.6663C14.6667 10.3127 14.8071 9.97358 15.0572 9.72353C15.3072 9.47348 15.6464 9.33301 16 9.33301C16.3536 9.33301 16.6928 9.47348 16.9428 9.72353C17.1929 9.97358 17.3333 10.3127 17.3333 10.6663V14.6663H21.3333C21.6869 14.6663 22.0261 14.8068 22.2761 15.0569C22.5262 15.3069 22.6667 15.6461 22.6667 15.9997C22.6667 16.3533 22.5262 16.6924 22.2761 16.9425C22.0261 17.1925 21.6869 17.333 21.3333 17.333H17.3333V21.333Z" fill="#FDFDFD"/>
</svg>
