<svg width="32" height="32" viewBox="0 0 32 32" fill="none" xmlns="http://www.w3.org/2000/svg">
<path fill-rule="evenodd" clip-rule="evenodd" d="M16 1.33301C7.89999 1.33301 1.33333 7.89967 1.33333 15.9997C1.33333 24.0997 7.89999 30.6663 16 30.6663C24.1 30.6663 30.6667 24.0997 30.6667 15.9997C30.6667 7.89967 24.1 1.33301 16 1.33301ZM10.6667 14.6663C10.313 14.6663 9.9739 14.8068 9.72385 15.0569C9.4738 15.3069 9.33333 15.6461 9.33333 15.9997C9.33333 16.3533 9.4738 16.6924 9.72385 16.9425C9.9739 17.1925 10.313 17.333 10.6667 17.333H21.3333C21.6869 17.333 22.0261 17.1925 22.2761 16.9425C22.5262 16.6924 22.6667 16.3533 22.6667 15.9997C22.6667 15.6461 22.5262 15.3069 22.2761 15.0569C22.0261 14.8068 21.6869 14.6663 21.3333 14.6663H10.6667Z" fill="#2B487E"/>
</svg>
