<svg width="176" height="180" viewBox="0 0 176 180" fill="none" xmlns="http://www.w3.org/2000/svg">
<g filter="url(#filter0_dddddd_444_29986)">
<path fill-rule="evenodd" clip-rule="evenodd" d="M88 11.5C72.8125 11.5 60.5 23.8125 60.5 39C60.5 54.1875 72.8125 66.5 88 66.5C103.188 66.5 115.5 54.1875 115.5 39C115.5 23.8125 103.188 11.5 88 11.5ZM79.7675 44.5175C79.296 44.9729 78.6645 45.2249 78.009 45.2192C77.3535 45.2135 76.7265 44.9506 76.263 44.487C75.7994 44.0235 75.5365 43.3965 75.5308 42.741C75.5251 42.0855 75.7771 41.454 76.2325 40.9825L86.2325 30.9825C86.7013 30.5138 87.3371 30.2505 88 30.2505C88.6629 30.2505 89.2987 30.5138 89.7675 30.9825L99.7675 40.9825C100.223 41.454 100.475 42.0855 100.469 42.741C100.463 43.3965 100.201 44.0235 99.737 44.487C99.2735 44.9506 98.6465 45.2135 97.991 45.2192C97.3355 45.2249 96.704 44.9729 96.2325 44.5175L88 36.285L79.7675 44.5175Z" fill="#FCCE07"/>
</g>
<defs>
<filter id="filter0_dddddd_444_29986" x="-2" y="-2.04412" width="180" height="184.044" filterUnits="userSpaceOnUse" color-interpolation-filters="sRGB">
<feFlood flood-opacity="0" result="BackgroundImageFix"/>
<feColorMatrix in="SourceAlpha" type="matrix" values="0 0 0 0 0 0 0 0 0 0 0 0 0 0 0 0 0 0 127 0" result="hardAlpha"/>
<feOffset dy="-2.94922"/>
<feGaussianBlur stdDeviation="1.65184"/>
<feColorMatrix type="matrix" values="0 0 0 0 1 0 0 0 0 1 0 0 0 0 1 0 0 0 0.0106415 0"/>
<feBlend mode="normal" in2="BackgroundImageFix" result="effect1_dropShadow_444_29986"/>
<feColorMatrix in="SourceAlpha" type="matrix" values="0 0 0 0 0 0 0 0 0 0 0 0 0 0 0 0 0 0 127 0" result="hardAlpha"/>
<feOffset dy="-3.28449"/>
<feGaussianBlur stdDeviation="3.42025"/>
<feColorMatrix type="matrix" values="0 0 0 0 1 0 0 0 0 1 0 0 0 0 1 0 0 0 0.0207098 0"/>
<feBlend mode="normal" in2="effect1_dropShadow_444_29986" result="effect2_dropShadow_444_29986"/>
<feColorMatrix in="SourceAlpha" type="matrix" values="0 0 0 0 0 0 0 0 0 0 0 0 0 0 0 0 0 0 127 0" result="hardAlpha"/>
<feOffset dy="0.00261903"/>
<feGaussianBlur stdDeviation="5.52337"/>
<feColorMatrix type="matrix" values="0 0 0 0 1 0 0 0 0 1 0 0 0 0 1 0 0 0 0.0304977 0"/>
<feBlend mode="normal" in2="effect2_dropShadow_444_29986" result="effect3_dropShadow_444_29986"/>
<feColorMatrix in="SourceAlpha" type="matrix" values="0 0 0 0 0 0 0 0 0 0 0 0 0 0 0 0 0 0 127 0" result="hardAlpha"/>
<feOffset dy="8.60885"/>
<feGaussianBlur stdDeviation="8.47489"/>
<feColorMatrix type="matrix" values="0 0 0 0 1 0 0 0 0 1 0 0 0 0 1 0 0 0 0.0407851 0"/>
<feBlend mode="normal" in2="effect3_dropShadow_444_29986" result="effect4_dropShadow_444_29986"/>
<feColorMatrix in="SourceAlpha" type="matrix" values="0 0 0 0 0 0 0 0 0 0 0 0 0 0 0 0 0 0 127 0" result="hardAlpha"/>
<feOffset dy="25.3945"/>
<feGaussianBlur stdDeviation="13.8151"/>
<feColorMatrix type="matrix" values="0 0 0 0 1 0 0 0 0 1 0 0 0 0 1 0 0 0 0.0532014 0"/>
<feBlend mode="normal" in2="effect4_dropShadow_444_29986" result="effect5_dropShadow_444_29986"/>
<feColorMatrix in="SourceAlpha" type="matrix" values="0 0 0 0 0 0 0 0 0 0 0 0 0 0 0 0 0 0 127 0" result="hardAlpha"/>
<feOffset dy="53"/>
<feGaussianBlur stdDeviation="30"/>
<feColorMatrix type="matrix" values="0 0 0 0 1 0 0 0 0 1 0 0 0 0 1 0 0 0 0.07 0"/>
<feBlend mode="normal" in2="effect5_dropShadow_444_29986" result="effect6_dropShadow_444_29986"/>
<feBlend mode="normal" in="SourceGraphic" in2="effect6_dropShadow_444_29986" result="shape"/>
</filter>
</defs>
</svg>
