<svg width="32" height="32" viewBox="0 0 32 32" fill="none" xmlns="http://www.w3.org/2000/svg">
<path d="M12.9467 15.0532C12.6956 14.8021 12.3551 14.661 12 14.661C11.6449 14.661 11.3044 14.8021 11.0533 15.0532C10.8023 15.3042 10.6612 15.6448 10.6612 15.9998C10.6612 16.3549 10.8023 16.6954 11.0533 16.9465L15.0533 20.9465C15.1779 21.0701 15.3257 21.1678 15.4881 21.2342C15.6506 21.3005 15.8245 21.3342 16 21.3332C16.1825 21.3274 16.3619 21.2841 16.5271 21.2062C16.6922 21.1282 16.8396 21.0171 16.96 20.8798L26.2933 10.2132C26.5088 9.9456 26.6127 9.60517 26.5834 9.26287C26.554 8.92057 26.3937 8.60281 26.1358 8.37584C25.8779 8.14887 25.5423 8.03023 25.199 8.04463C24.8558 8.05904 24.5313 8.20538 24.2933 8.45316L16 18.0532L12.9467 15.0532Z" fill="#09C71C"/>
<path d="M28 14.6665C27.6464 14.6665 27.3072 14.807 27.0572 15.057C26.8071 15.3071 26.6667 15.6462 26.6667 15.9998C26.6667 18.8288 25.5429 21.5419 23.5425 23.5423C21.5421 25.5427 18.829 26.6665 16 26.6665C13.8934 26.6655 11.8343 26.0409 10.0823 24.8712C8.33035 23.7016 6.9639 22.0394 6.15531 20.0942C5.34671 18.149 5.13219 16.008 5.53878 13.941C5.94538 11.8741 6.95488 9.97382 8.44 8.47984C9.4276 7.47902 10.6049 6.68523 11.903 6.14492C13.2011 5.60462 14.5939 5.32865 16 5.33317C16.8526 5.33851 17.7021 5.43687 18.5333 5.6265C18.7073 5.68031 18.8904 5.69792 19.0714 5.67824C19.2525 5.65856 19.4275 5.60201 19.5859 5.51207C19.7442 5.42214 19.8824 5.30073 19.992 5.15533C20.1016 5.00993 20.1803 4.84362 20.2232 4.66666C20.2661 4.48969 20.2722 4.30581 20.2413 4.12637C20.2104 3.94693 20.1431 3.77572 20.0434 3.62329C19.9438 3.47087 19.8141 3.34047 19.6621 3.24012C19.5102 3.13977 19.3393 3.07161 19.16 3.03984C18.1242 2.79616 17.0641 2.67091 16 2.6665C13.3658 2.68019 10.7946 3.47386 8.61106 4.94737C6.42747 6.42088 4.72929 8.50819 3.73082 10.9459C2.73235 13.3836 2.47834 16.0624 3.00084 18.6443C3.52335 21.2262 4.79894 23.5955 6.66666 25.4532C9.14225 27.9299 12.4982 29.325 16 29.3332C19.5362 29.3332 22.9276 27.9284 25.4281 25.4279C27.9286 22.9274 29.3333 19.5361 29.3333 15.9998C29.3333 15.6462 29.1929 15.3071 28.9428 15.057C28.6928 14.807 28.3536 14.6665 28 14.6665Z" fill="#FCCE07"/>
</svg>
