<svg width="99" height="100" viewBox="0 0 99 100" fill="none" xmlns="http://www.w3.org/2000/svg">
<path d="M21.6446 17.3672H77.3021C80.7246 17.367 84.0174 18.6764 86.5051 21.0269C88.9928 23.3773 90.4868 26.5906 90.6805 30.0076L90.7011 30.7662V69.9326C90.7014 73.3551 89.3919 76.6479 87.0415 79.1356C84.691 81.6233 81.4777 83.1173 78.0607 83.311L77.3021 83.3316H21.6446C18.2221 83.3319 14.9293 82.0224 12.4416 79.672C9.9539 77.3215 8.45994 74.1082 8.26617 70.6912L8.24556 69.9326V30.7662C8.24534 27.3437 9.55477 24.0509 11.9052 21.5632C14.2557 19.0755 17.469 17.5816 20.886 17.3878L21.6446 17.3672H77.3021H21.6446ZM84.517 39.5189L50.9163 57.2056C50.5369 57.406 50.12 57.5253 49.692 57.5558C49.264 57.5863 48.8343 57.5274 48.4303 57.3829L48.0345 57.2097L14.4297 39.523V69.9326C14.4298 71.7433 15.1107 73.4878 16.3373 74.8197C17.5638 76.1517 19.2464 76.9738 21.0509 77.1227L21.6446 77.1475H77.3021C79.1134 77.1473 80.8585 76.4659 82.1905 75.2384C83.5226 74.011 84.3442 72.3275 84.4922 70.5222L84.517 69.9326V39.5189ZM77.3021 23.5514H21.6446C19.8339 23.5514 18.0894 24.2323 16.7575 25.4589C15.4255 26.6854 14.6035 28.368 14.4545 30.1725L14.4297 30.7662V32.5349L49.4734 50.9761L84.517 32.5308V30.7662C84.5168 28.9549 83.8354 27.2099 82.6079 25.8778C81.3805 24.5457 79.6969 23.7241 77.8917 23.5761L77.3021 23.5514Z" fill="#FDFDFD"/>
</svg>
