<svg width="99" height="99" viewBox="0 0 99 99" fill="none" xmlns="http://www.w3.org/2000/svg">
<path d="M49.4733 89.0519C53.7775 89.0519 57.9333 88.3593 61.812 87.0928C59.8965 84.602 58.2793 81.8955 56.9933 79.0286C54.5394 82.4967 51.8777 84.1046 49.4733 84.1046C46.2229 84.1046 42.5124 81.1856 39.4698 74.6651C38.3117 72.1292 37.3877 69.4929 36.7092 66.7889H54.4405C54.4998 65.0969 54.7323 63.4395 55.1182 61.8416H35.6505C34.963 57.7548 34.6221 53.6173 34.6313 49.4732C34.6313 45.1047 34.9925 40.9391 35.6505 37.1049H63.2962C63.8899 40.5878 64.2461 44.3428 64.3054 48.276C65.7995 47.2568 67.4272 46.4207 69.1835 45.8023C69.0557 42.889 68.7633 39.9852 68.3078 37.1049H81.8289C82.8678 39.821 83.5753 42.7003 83.9018 45.6935C85.7521 46.3218 87.4689 47.1876 89.0322 48.2512C88.7921 40.479 86.2679 32.9497 81.7747 26.6033C77.2815 20.257 71.0185 15.3748 63.7674 12.5663C56.5164 9.75775 48.5988 9.14738 41.003 10.8114C33.4072 12.4753 26.4698 16.3399 21.057 21.9226C15.6442 27.5053 11.9958 34.5588 10.5673 42.2024C9.13884 49.846 9.99356 57.741 13.0248 64.9018C16.056 72.0626 21.1294 78.1718 27.6115 82.4668C34.0937 86.7617 41.6974 89.0521 49.4733 89.0519ZM49.4733 14.8419C52.7237 14.8419 56.4342 17.7608 59.4768 24.2814C60.5504 26.5869 61.4855 29.2386 62.2424 32.1576H36.7043C37.4612 29.2386 38.3963 26.5869 39.4748 24.2814C42.5075 17.7608 46.218 14.8419 49.4733 14.8419ZM34.9875 22.1887C33.5266 25.3887 32.3945 28.7288 31.6085 32.1576H19.4727C23.6494 24.9387 30.2837 19.4634 38.1637 16.7318C36.9714 18.3644 35.9077 20.2147 34.9875 22.1887ZM30.6339 37.1049C29.9936 41.1964 29.676 45.3319 29.684 49.4732C29.684 53.7774 30.0155 57.9431 30.6388 61.8416H17.1178C15.609 57.8927 14.8376 53.7005 14.842 49.4732C14.842 45.1196 15.6484 40.944 17.1178 37.1049H30.6388H30.6339ZM31.6085 66.7889C32.4792 70.4648 33.6221 73.824 34.9875 76.7578C35.9077 78.7318 36.9714 80.5821 38.1637 82.2147C30.2837 79.483 23.6494 74.0077 19.4727 66.7889H31.6135H31.6085ZM60.7829 16.7318C68.6631 19.463 75.2976 24.9385 79.474 32.1576H67.3332C66.5472 28.7288 65.415 25.3887 63.9542 22.1887C63.0733 20.2719 62.0096 18.4444 60.778 16.7318H60.7829ZM93.9993 67.6893C93.9993 57.6314 86.7515 49.4782 76.6886 49.4782C66.6307 49.4782 59.368 57.6314 59.368 67.6893C59.368 75.229 64.2263 85.1534 75.4765 93.5936C76.1939 94.1378 77.1833 94.1378 77.9007 93.5936C89.1608 85.1534 93.9993 75.229 93.9993 67.6893ZM84.1047 66.7889C84.1047 68.7571 83.3228 70.6446 81.9311 72.0363C80.5394 73.428 78.6518 74.2099 76.6837 74.2099C74.7155 74.2099 72.8279 73.428 71.4362 72.0363C70.0445 70.6446 69.2627 68.7571 69.2627 66.7889C69.2627 64.8207 70.0445 62.9332 71.4362 61.5415C72.8279 60.1497 74.7155 59.3679 76.6837 59.3679C78.6518 59.3679 80.5394 60.1497 81.9311 61.5415C83.3228 62.9332 84.1047 64.8207 84.1047 66.7889Z" fill="#FDFDFD"/>
</svg>
