<svg width="24" height="24" viewBox="0 0 24 24" fill="none" xmlns="http://www.w3.org/2000/svg">
<path d="M12 9.1875C11.4437 9.1875 10.9 9.35245 10.4375 9.66149C9.97495 9.97054 9.61446 10.4098 9.40159 10.9237C9.18872 11.4376 9.13302 12.0031 9.24154 12.5487C9.35006 13.0943 9.61793 13.5954 10.0113 13.9887C10.4046 14.3821 10.9057 14.6499 11.4513 14.7585C11.9969 14.867 12.5624 14.8113 13.0763 14.5984C13.5902 14.3855 14.0295 14.0251 14.3385 13.5625C14.6476 13.1 14.8125 12.5563 14.8125 12C14.81 11.2548 14.5129 10.5409 13.986 10.014C13.4591 9.48708 12.7452 9.18997 12 9.1875ZM12 13.6875C11.6662 13.6875 11.34 13.5885 11.0625 13.4031C10.785 13.2177 10.5687 12.9541 10.441 12.6458C10.3132 12.3374 10.2798 11.9981 10.3449 11.6708C10.41 11.3434 10.5708 11.0428 10.8068 10.8068C11.0428 10.5708 11.3434 10.41 11.6708 10.3449C11.9981 10.2798 12.3374 10.3132 12.6458 10.441C12.9541 10.5687 13.2177 10.785 13.4031 11.0625C13.5885 11.34 13.6875 11.6662 13.6875 12C13.685 12.4468 13.5065 12.8746 13.1905 13.1905C12.8746 13.5065 12.4468 13.685 12 13.6875ZM12 7.3125C12.5563 7.3125 13.1 7.14755 13.5625 6.83851C14.0251 6.52947 14.3855 6.09022 14.5984 5.5763C14.8113 5.06238 14.867 4.49688 14.7585 3.95131C14.6499 3.40574 14.3821 2.9046 13.9887 2.51126C13.5954 2.11793 13.0943 1.85006 12.5487 1.74154C12.0031 1.63302 11.4376 1.68872 10.9237 1.90159C10.4098 2.11446 9.97053 2.47495 9.66149 2.93746C9.35245 3.39997 9.1875 3.94374 9.1875 4.5C9.18997 5.24516 9.48708 5.9591 10.014 6.48601C10.5409 7.01292 11.2548 7.31003 12 7.3125ZM12 2.8125C12.3338 2.8125 12.66 2.91147 12.9375 3.0969C13.215 3.28232 13.4313 3.54587 13.559 3.85422C13.6868 4.16257 13.7202 4.50187 13.6551 4.82922C13.59 5.15656 13.4292 5.45724 13.1932 5.69324C12.9572 5.92925 12.6566 6.08996 12.3292 6.15508C12.0019 6.22019 11.6626 6.18677 11.3542 6.05905C11.0459 5.93133 10.7823 5.71503 10.5969 5.43753C10.4115 5.16002 10.3125 4.83376 10.3125 4.5C10.315 4.05321 10.4935 3.62541 10.8095 3.30948C11.1254 2.99354 11.5532 2.81496 12 2.8125ZM12 16.6875C11.4437 16.6875 10.9 16.8525 10.4375 17.1615C9.97495 17.4705 9.61446 17.9098 9.40159 18.4237C9.18872 18.9376 9.13302 19.5031 9.24154 20.0487C9.35006 20.5943 9.61793 21.0954 10.0113 21.4887C10.4046 21.8821 10.9057 22.1499 11.4513 22.2585C11.9969 22.367 12.5624 22.3113 13.0763 22.0984C13.5902 21.8855 14.0295 21.5251 14.3385 21.0625C14.6476 20.6 14.8125 20.0563 14.8125 19.5C14.81 18.7548 14.5129 18.0409 13.986 17.514C13.4591 16.9871 12.7452 16.69 12 16.6875ZM12 21.1875C11.6662 21.1875 11.34 21.0885 11.0625 20.9031C10.785 20.7177 10.5687 20.4541 10.441 20.1458C10.3132 19.8374 10.2798 19.4981 10.3449 19.1708C10.41 18.8434 10.5708 18.5428 10.8068 18.3068C11.0428 18.0708 11.3434 17.91 11.6708 17.8449C11.9981 17.7798 12.3374 17.8132 12.6458 17.941C12.9541 18.0687 13.2177 18.285 13.4031 18.5625C13.5885 18.84 13.6875 19.1662 13.6875 19.5C13.685 19.9468 13.5065 20.3746 13.1905 20.6905C12.8746 21.0065 12.4468 21.185 12 21.1875Z" fill="#2B487E"/>
</svg>
