<svg width="32" height="32" viewBox="0 0 32 32" fill="none" xmlns="http://www.w3.org/2000/svg">
<path d="M18.8531 10.2343L11.1656 15.7968C11.1337 15.8198 11.1077 15.8501 11.0897 15.8851C11.0718 15.9202 11.0624 15.959 11.0624 15.9983C11.0624 16.0377 11.0718 16.0765 11.0897 16.1116C11.1077 16.1466 11.1337 16.1769 11.1656 16.1999L18.8531 21.7624C19.0187 21.8812 19.25 21.7624 19.25 21.5593V20.0937C19.25 19.7749 19.0969 19.4718 18.8375 19.2843L14.2937 15.9999L18.8375 12.7124C19.0969 12.5249 19.25 12.2249 19.25 11.903V10.4374C19.25 10.2343 19.0187 10.1155 18.8531 10.2343Z" fill="#2B487E"/>
<path d="M16 2C8.26875 2 2 8.26875 2 16C2 23.7312 8.26875 30 16 30C23.7312 30 30 23.7312 30 16C30 8.26875 23.7312 2 16 2ZM16 27.625C9.58125 27.625 4.375 22.4187 4.375 16C4.375 9.58125 9.58125 4.375 16 4.375C22.4187 4.375 27.625 9.58125 27.625 16C27.625 22.4187 22.4187 27.625 16 27.625Z" fill="#2B487E"/>
</svg>
