<svg width="24" height="8" viewBox="0 0 24 8" fill="none" xmlns="http://www.w3.org/2000/svg">
<path d="M0 7.4207V0.0945322H1.79963V5.98698H4.88926V7.4207H0ZM12.8204 3.76549C12.8204 4.56901 12.6611 5.26224 12.3426 5.81367C12.0241 6.38085 11.61 6.80625 11.0685 7.08984C10.543 7.37343 9.93778 7.53098 9.26889 7.53098C8.6 7.53098 8.01074 7.38919 7.46926 7.08984C6.9437 6.79049 6.5137 6.3651 6.19519 5.81367C5.87667 5.24648 5.73333 4.56901 5.73333 3.76549C5.73333 2.96198 5.89259 2.26875 6.19519 1.71732C6.5137 1.15013 6.92778 0.724737 7.46926 0.441144C7.99482 0.15755 8.6 0 9.26889 0C9.93778 0 10.527 0.141795 11.0685 0.441144C11.61 0.724737 12.0241 1.16588 12.3426 1.71732C12.6611 2.26875 12.8204 2.96198 12.8204 3.76549ZM10.9889 3.76549C10.9889 3.29284 10.9252 2.8832 10.7819 2.55234C10.6544 2.22148 10.4474 1.9694 10.1926 1.79609C9.93778 1.62278 9.63518 1.54401 9.26889 1.54401C8.91852 1.54401 8.61593 1.62278 8.34519 1.79609C8.09037 1.9694 7.89926 2.22148 7.75592 2.55234C7.62852 2.8832 7.54889 3.29284 7.54889 3.76549C7.54889 4.23815 7.61259 4.64778 7.75592 4.97864C7.89926 5.3095 8.09037 5.56158 8.34519 5.73489C8.6 5.9082 8.90259 5.98698 9.26889 5.98698C9.61926 5.98698 9.93778 5.9082 10.1926 5.73489C10.4474 5.56158 10.6385 5.3095 10.7819 4.97864C10.9252 4.64778 10.9889 4.23815 10.9889 3.76549ZM15.5915 7.4207L13.4256 0.0945322H15.4004L16.5152 4.89987H16.5789L17.853 0.0945322H19.4774L20.7515 4.91562H20.8152L21.93 0.0945322H23.9048L21.7548 7.4207H20.0348L18.697 2.97773H18.6333L17.2956 7.4207H15.5915Z" fill="#2B487E"/>
</svg>
