<svg width="26" height="26" viewBox="0 0 26 26" fill="none" xmlns="http://www.w3.org/2000/svg">
<path d="M25 10H23C22.9979 8.14414 22.2597 6.3649 20.9474 5.0526C19.6351 3.7403 17.8559 3.00213 16 3.00001V1.00001C18.3862 1.00266 20.6738 1.95172 22.3611 3.63897C24.0483 5.32622 24.9974 7.61387 25 10ZM17.333 18.482L19.573 16.242C19.8729 15.9421 20.2541 15.7368 20.6695 15.6514C21.0849 15.5661 21.5162 15.6046 21.91 15.762L24.638 16.854C25.0401 17.0149 25.3848 17.2925 25.6275 17.6512C25.8703 18.0098 26 18.4329 26 18.866V23.827C26.0007 24.1219 25.9412 24.4138 25.8252 24.6848C25.7092 24.9559 25.5391 25.2005 25.3253 25.4035C25.1114 25.6066 24.8584 25.7638 24.5817 25.8657C24.305 25.9676 24.0105 26.0119 23.716 25.996C4.59402 24.806 0.732019 8.61001 0.0150187 2.40801C-0.0197077 2.1048 0.0101515 1.79768 0.102633 1.50685C0.195114 1.21601 0.348121 0.948047 0.55159 0.720585C0.755059 0.493123 1.00438 0.311315 1.28315 0.187119C1.56193 0.062924 1.86383 -0.000844432 2.16902 8.44343e-06H7.04202C7.47509 -5.4626e-06 7.89823 0.12974 8.25686 0.372508C8.61548 0.615276 8.89314 0.959929 9.05402 1.36201L10.145 4.09001C10.3025 4.48378 10.3409 4.9151 10.2556 5.33051C10.1703 5.74592 9.96493 6.12717 9.66502 6.42701L7.42502 8.66701C7.42502 8.66701 8.66702 17.399 17.333 18.482Z" fill="#2B487E"/>
</svg>
