<svg width="73" height="73" viewBox="0 0 73 73" fill="none" xmlns="http://www.w3.org/2000/svg">
<path d="M54.7124 30.1619H50.2148C50.213 28.3732 49.5017 26.6583 48.2369 25.3935C46.9721 24.1287 45.2571 23.4173 43.4684 23.4155V18.918C46.4494 18.9215 49.3073 20.1073 51.4152 22.2152C53.523 24.3231 54.7088 27.1809 54.7124 30.1619Z" fill="#FDFDFD"/>
<path d="M63.7075 30.1617H59.21C59.2052 25.9883 57.5452 21.9871 54.5941 19.0361C51.643 16.085 47.6419 14.425 43.4684 14.4202V9.92264C48.8344 9.92859 53.9788 12.0628 57.7731 15.8571C61.5673 19.6514 63.7016 24.7958 63.7075 30.1617ZM46.4661 49.2359L51.5034 44.1987C52.1776 43.5242 53.035 43.0625 53.9691 42.8706C54.9033 42.6787 55.8733 42.7652 56.7588 43.1192L62.8935 45.5749C63.7977 45.9367 64.5727 46.5611 65.1186 47.3676C65.6646 48.174 65.9564 49.1256 65.9563 50.0995V61.2557C65.9579 61.9188 65.8241 62.5752 65.5632 63.1848C65.3023 63.7944 64.9197 64.3443 64.4389 64.8009C63.9581 65.2576 63.3892 65.6112 62.7669 65.8403C62.1447 66.0694 61.4822 66.1691 60.8201 66.1333C17.8188 63.4573 9.13393 27.0359 7.52155 13.0889C7.44346 12.4071 7.51061 11.7164 7.71858 11.0624C7.92655 10.4084 8.27063 9.80579 8.72819 9.29427C9.18575 8.78276 9.74642 8.37391 10.3733 8.09462C11.0002 7.81533 11.6791 7.67193 12.3654 7.67385H23.3238C24.2977 7.67382 25.2492 7.96559 26.0557 8.51152C26.8622 9.05745 27.4866 9.83251 27.8484 10.7367L30.3018 16.8714C30.6558 17.7569 30.7423 18.7268 30.5504 19.661C30.3585 20.5952 29.8968 21.4525 29.2224 22.1268L24.1851 27.1641C24.1851 27.1641 26.9781 46.8005 46.4661 49.2359Z" fill="#FDFDFD"/>
</svg>
