<svg width="32" height="32" viewBox="0 0 32 32" fill="none" xmlns="http://www.w3.org/2000/svg">
<path d="M13.1469 10.2343L20.8344 15.7968C20.8663 15.8198 20.8923 15.8501 20.9103 15.8851C20.9282 15.9202 20.9376 15.959 20.9376 15.9983C20.9376 16.0377 20.9282 16.0765 20.9103 16.1116C20.8923 16.1466 20.8663 16.1769 20.8344 16.1999L13.1469 21.7624C12.9812 21.8812 12.75 21.7624 12.75 21.5593V20.0937C12.75 19.7749 12.9031 19.4718 13.1625 19.2843L17.7062 15.9999L13.1625 12.7124C12.9031 12.5249 12.75 12.2249 12.75 11.903V10.4374C12.75 10.2343 12.9812 10.1155 13.1469 10.2343Z" fill="#2B487E"/>
<path d="M16 2C23.7312 2 30 8.26875 30 16C30 23.7312 23.7312 30 16 30C8.26875 30 2 23.7312 2 16C2 8.26875 8.26875 2 16 2ZM16 27.625C22.4187 27.625 27.625 22.4187 27.625 16C27.625 9.58125 22.4187 4.375 16 4.375C9.58125 4.375 4.375 9.58125 4.375 16C4.375 22.4187 9.58125 27.625 16 27.625Z" fill="#2B487E"/>
</svg>
