<svg width="21" height="20" viewBox="0 0 21 20" fill="none" xmlns="http://www.w3.org/2000/svg">
<path d="M1.26516 0.461186L19.6912 9.54039C19.7916 9.5899 19.8762 9.66656 19.9354 9.76167C19.9946 9.85679 20.0259 9.96657 20.0259 10.0786C20.0259 10.1906 19.9946 10.3004 19.9354 10.3955C19.8762 10.4906 19.7916 10.5673 19.6912 10.6168L1.26396 19.696C1.16073 19.7467 1.04509 19.7667 0.930829 19.7535C0.816565 19.7404 0.708488 19.6947 0.61947 19.6218C0.530451 19.549 0.464243 19.4521 0.428729 19.3427C0.393216 19.2333 0.389895 19.116 0.419161 19.0048L2.24436 12.1108C2.27395 11.9992 2.33508 11.8986 2.42043 11.8209C2.50578 11.7432 2.61172 11.6918 2.72556 11.6728L10.9828 10.2964C11.032 10.2882 11.0784 10.2679 11.1177 10.2374C11.1571 10.2068 11.1883 10.1668 11.2084 10.1212L11.23 10.0492C11.2412 9.98245 11.2295 9.91389 11.1968 9.85464C11.1641 9.79539 11.1124 9.74892 11.05 9.72279L10.9828 9.70359L2.67996 8.31999C2.56634 8.30078 2.46065 8.24926 2.37553 8.17159C2.29041 8.09392 2.22946 7.99338 2.19996 7.88199L0.419161 1.15359C0.38959 1.04227 0.392682 0.924802 0.428066 0.815199C0.463451 0.705596 0.529633 0.608493 0.618711 0.535486C0.707788 0.462478 0.815995 0.41665 0.930413 0.403475C1.04483 0.3903 1.16062 0.410335 1.26396 0.461186H1.26516Z" fill="#FCCE07"/>
</svg>
