<svg width="24" height="24" viewBox="0 0 24 24" fill="none" xmlns="http://www.w3.org/2000/svg">
<path d="M10.1287 9V15.7289C10.1365 16.222 10.3378 16.6922 10.6893 17.0382C11.0407 17.3841 11.5141 17.578 12.0072 17.578C12.5004 17.578 12.9737 17.3841 13.3252 17.0382C13.6766 16.6922 13.878 16.222 13.8858 15.7289L13.8918 6.89062C13.897 6.46918 13.8184 6.05092 13.6606 5.66008C13.5029 5.26924 13.2691 4.9136 12.9729 4.61377C12.6767 4.31395 12.3239 4.0759 11.935 3.91343C11.5461 3.75096 11.1289 3.6673 10.7074 3.6673C10.2859 3.6673 9.86864 3.75096 9.47975 3.91343C9.09085 4.0759 8.73807 4.31395 8.44186 4.61377C8.14565 4.9136 7.9119 5.26924 7.75416 5.66008C7.59642 6.05092 7.51783 6.46918 7.52294 6.89062V15.7884C7.53996 16.9645 8.01908 18.0866 8.85675 18.9122C9.69442 19.7378 10.8233 20.2007 11.9995 20.2007C13.1757 20.2007 14.3046 19.7378 15.1423 18.9122C15.9799 18.0866 16.459 16.9645 16.4761 15.7884V7.47375" stroke="#2B487E" stroke-miterlimit="10" stroke-linecap="square"/>
</svg>
