<svg width="24" height="24" viewBox="0 0 24 24" fill="none" xmlns="http://www.w3.org/2000/svg">
<path d="M12 2.40002C14.5461 2.40002 16.9879 3.41145 18.7882 5.2118C20.5886 7.01215 21.6 9.45395 21.6 12C21.6 14.5461 20.5886 16.9879 18.7882 18.7882C16.9879 20.5886 14.5461 21.6 12 21.6C9.45395 21.6 7.01215 20.5886 5.2118 18.7882C3.41145 16.9879 2.40002 14.5461 2.40002 12C2.40002 9.45395 3.41145 7.01215 5.2118 5.2118C7.01215 3.41145 9.45395 2.40002 12 2.40002ZM12 3.60002C10.8969 3.60002 9.80462 3.8173 8.78548 4.23944C7.76635 4.66158 6.84034 5.28031 6.06033 6.06033C5.28031 6.84034 4.66158 7.76635 4.23944 8.78548C3.8173 9.80462 3.60002 10.8969 3.60002 12C3.60002 13.1031 3.8173 14.1954 4.23944 15.2146C4.66158 16.2337 5.28031 17.1597 6.06033 17.9397C6.84034 18.7197 7.76635 19.3385 8.78548 19.7606C9.80462 20.1828 10.8969 20.4 12 20.4C14.2278 20.4 16.3644 19.515 17.9397 17.9397C19.515 16.3644 20.4 14.2278 20.4 12C20.4 9.77221 19.515 7.63563 17.9397 6.06033C16.3644 4.48502 14.2278 3.60002 12 3.60002ZM8.58602 14.9124C9.4534 15.7857 10.6224 16.2935 11.8526 16.3314C13.0828 16.3694 14.2809 15.9346 15.2004 15.1164L15.414 14.9124C15.5194 14.8053 15.6612 14.7416 15.8114 14.734C15.9615 14.7264 16.109 14.7754 16.2247 14.8714C16.3404 14.9673 16.4159 15.1032 16.4362 15.2521C16.4565 15.4011 16.4202 15.5522 16.3344 15.6756L16.266 15.7596L16.2384 15.786C15.6782 16.3427 15.0139 16.7835 14.2833 17.0834C13.5527 17.3832 12.7702 17.5363 11.9805 17.5337C11.1908 17.5311 10.4093 17.373 9.68069 17.0684C8.95208 16.7638 8.2906 16.3187 7.73402 15.7584C7.62184 15.6454 7.55913 15.4925 7.55969 15.3333C7.56025 15.1741 7.62404 15.0216 7.73702 14.9094C7.85001 14.7972 8.00293 14.7345 8.16215 14.7351C8.32136 14.7357 8.47384 14.7994 8.58602 14.9124ZM15 9.00002C15.3183 9.00002 15.6235 9.12645 15.8486 9.3515C16.0736 9.57654 16.2 9.88176 16.2 10.2C16.2 10.5183 16.0736 10.8235 15.8486 11.0486C15.6235 11.2736 15.3183 11.4 15 11.4C14.6818 11.4 14.3765 11.2736 14.1515 11.0486C13.9265 10.8235 13.8 10.5183 13.8 10.2C13.8 9.88176 13.9265 9.57654 14.1515 9.3515C14.3765 9.12645 14.6818 9.00002 15 9.00002ZM9.00002 9.00002C9.31828 9.00002 9.62351 9.12645 9.84855 9.3515C10.0736 9.57654 10.2 9.88176 10.2 10.2C10.2 10.5183 10.0736 10.8235 9.84855 11.0486C9.62351 11.2736 9.31828 11.4 9.00002 11.4C8.68176 11.4 8.37654 11.2736 8.1515 11.0486C7.92645 10.8235 7.80002 10.5183 7.80002 10.2C7.80002 9.88176 7.92645 9.57654 8.1515 9.3515C8.37654 9.12645 8.68176 9.00002 9.00002 9.00002Z" fill="#2B487E"/>
</svg>
