<svg width="145" height="164" viewBox="0 0 145 164" fill="none" xmlns="http://www.w3.org/2000/svg">
<g clip-path="url(#clip0_381_31502)">
<path d="M72.148 0C47.0147 0 25.8171 1.3735 22.6547 3.198C17.1309 5.0635 12.9742 17.4797 12.9604 32.2123V39.5308H11.4552C11.301 39.1946 11.0962 38.8836 10.8476 38.6083C11.4996 37.8653 11.8577 36.9138 11.8557 35.9297V32.2123C11.9435 31.3427 11.6843 30.4735 11.1335 29.7904C10.5826 29.1074 9.78365 28.6645 8.90732 28.5565H2.98303C2.10166 28.6661 1.29874 29.1131 0.74634 29.8016C0.193938 30.49 -0.0640015 31.3652 0.0277944 32.2397V32.226V35.9433C0.0277944 36.9683 0.407556 37.9113 1.03589 38.6288L1.02898 38.622C0.376976 39.365 0.0188714 40.3166 0.0208896 41.3007V59.655C0.00708008 59.7575 0.00708008 59.8668 0.00708008 59.983C0.00708008 61.6913 1.29827 63.1058 2.96922 63.3108H8.90041C9.45584 63.2826 9.99135 63.0968 10.4431 62.7758C10.8948 62.4547 11.2438 62.0118 11.4483 61.5L11.4552 61.4795H12.9604V94.4298C12.9604 95.735 14.3759 96.9445 16.6614 97.5937V101.871C13.3954 102.288 11.1376 103.744 11.1376 105.411V142.038C10.9054 146.577 12.2237 151.061 14.8799 154.768L14.8385 154.707V161C14.8385 162.661 16.1987 164.007 17.8766 164.007H30.2914C31.0971 164.007 31.8699 163.69 32.4396 163.126C33.0094 162.562 33.3295 161.798 33.3295 161V156.688H110.987V161C110.987 162.661 112.348 164.007 114.025 164.007H126.44C126.839 164.007 127.234 163.929 127.603 163.778C127.971 163.627 128.306 163.405 128.588 163.126C128.871 162.847 129.094 162.516 129.247 162.151C129.4 161.786 129.478 161.395 129.478 161V154.714C132.119 151.008 133.422 146.531 133.179 142.003V142.051V105.425C133.179 103.757 130.894 102.302 127.655 101.885V97.6073C129.941 96.9582 131.349 95.7487 131.356 94.4435V61.5068H132.862C133.276 62.5455 134.256 63.2767 135.409 63.3382H141.313C142.194 63.2285 142.997 62.7816 143.55 62.0931C144.102 61.4046 144.36 60.5294 144.268 59.655V59.6687V41.3143C144.27 40.3282 143.912 39.3746 143.26 38.6288L143.267 38.6357C143.919 37.8926 144.277 36.9411 144.275 35.957V32.2533C144.363 31.3837 144.104 30.5145 143.553 29.8314C143.002 29.1484 142.203 28.7055 141.327 28.5975H135.396C134.514 28.7071 133.711 29.1541 133.159 29.8426C132.607 30.531 132.349 31.4062 132.44 32.2807V32.267V35.9843C132.44 37.0093 132.82 37.9523 133.449 38.6698L133.442 38.663C133.199 38.9315 132.997 39.233 132.841 39.5582L132.834 39.5787H131.329V32.226C131.329 17.4182 127.131 4.94733 121.565 3.1775C118.182 1.35983 97.088 0.0136667 72.148 0.0136667V0ZM21.4118 21.2312H122.877C124.666 21.2312 126.157 22.4885 126.502 24.1627L126.509 24.1832C127.214 27.6682 127.614 31.6793 127.614 35.7862V36.0458V36.0322V61.5C127.614 63.5227 125.957 65.1627 123.913 65.1627H20.3623C19.3808 65.1627 18.4394 64.7768 17.7454 64.0899C17.0513 63.403 16.6614 62.4714 16.6614 61.5V35.793C16.6614 31.6862 17.0618 27.675 17.8283 23.7937L17.7661 24.1832C17.9324 23.351 18.3855 22.6018 19.0478 22.0634C19.7102 21.525 20.5409 21.2309 21.398 21.2312H21.4118ZM25.9068 101.769H33.8335C34.8209 101.769 35.6218 102.534 35.6771 103.498V103.504L36.9959 127.298V127.394C36.9959 128.405 36.1673 129.225 35.1454 129.225H25.9068C25.4161 129.225 24.9454 129.032 24.5984 128.689C24.2513 128.345 24.0564 127.88 24.0564 127.394V103.6C24.0564 102.589 24.8849 101.769 25.9068 101.769ZM110.456 101.769H118.382C119.404 101.769 120.233 102.589 120.233 103.6V127.373C120.233 128.385 119.404 129.205 118.382 129.205H109.137C108.646 129.205 108.175 129.012 107.828 128.668C107.481 128.325 107.286 127.859 107.286 127.373V127.271V127.278L108.605 103.484C108.674 102.527 109.475 101.776 110.449 101.776H110.456V101.769ZM41.629 106.142H102.667C103.178 106.142 103.592 106.552 103.592 107.058V108.151C103.592 108.657 103.178 109.067 102.667 109.067H41.629C41.3836 109.067 41.1483 108.97 40.9747 108.799C40.8012 108.627 40.7038 108.394 40.7038 108.151V107.058C40.7038 106.552 41.118 106.142 41.629 106.142ZM41.9949 112.729H102.294C102.805 112.729 103.219 113.139 103.219 113.645V114.738C103.219 115.244 102.805 115.654 102.294 115.654H41.9949C41.7495 115.654 41.5142 115.558 41.3407 115.386C41.1672 115.214 41.0697 114.981 41.0697 114.738V113.645C41.0697 113.139 41.484 112.729 41.9949 112.729ZM42.3678 119.317H101.928C102.439 119.317 102.854 119.727 102.854 120.232V121.326C102.854 121.831 102.439 122.241 101.928 122.241H42.3678C42.1301 122.242 41.9016 122.151 41.7303 121.987C41.5591 121.824 41.4584 121.602 41.4495 121.367V120.273C41.4495 119.768 41.8638 119.358 42.3747 119.358L42.3678 119.317ZM42.7407 125.904H101.555C102.066 125.904 102.481 126.314 102.481 126.82V127.913C102.481 128.419 102.066 128.829 101.555 128.829H42.7407C42.4953 128.829 42.2599 128.732 42.0864 128.561C41.9129 128.389 41.8154 128.156 41.8154 127.913V126.82C41.8154 126.314 42.2297 125.904 42.7407 125.904Z" fill="#FDFDFD"/>
</g>
<defs>
<clipPath id="clip0_381_31502">
<rect width="145" height="164" fill="white"/>
</clipPath>
</defs>
</svg>
