<svg width="168" height="168" viewBox="0 0 168 168" fill="none" xmlns="http://www.w3.org/2000/svg">
<path d="M0 59.592V26.424C7.53201e-05 24.1943 0.62138 22.0087 1.79423 20.1124C2.96707 18.216 4.64507 16.684 6.64 15.688L34.64 1.68803C36.3046 0.857027 38.1395 0.424438 40 0.424438C41.8605 0.424438 43.6954 0.857027 45.36 1.68803L73.36 15.688C75.3549 16.684 77.0329 18.216 78.2058 20.1124C79.3786 22.0087 79.9999 24.1943 80 26.424V59.592C79.9985 61.8204 79.3764 64.0043 78.2037 65.8991C77.0309 67.7939 75.3537 69.3247 73.36 70.32L45.36 84.32C43.6954 85.151 41.8605 85.5836 40 85.5836C38.1395 85.5836 36.3046 85.151 34.64 84.32L6.64 70.32C4.64628 69.3247 2.96909 67.7939 1.79633 65.8991C0.623566 64.0043 0.00156112 61.8204 0 59.592ZM12.424 27.216C11.9513 28.1636 11.8736 29.26 12.2081 30.2648C12.5425 31.2696 13.2617 32.1007 14.208 32.576L36 43.48V67C36 68.0609 36.4214 69.0783 37.1716 69.8285C37.9217 70.5786 38.9391 71 40 71C41.0609 71 42.0783 70.5786 42.8284 69.8285C43.5786 69.0783 44 68.0609 44 67V43.48L65.792 32.584C66.2621 32.3487 66.6813 32.0231 67.0256 31.6258C67.3699 31.2284 67.6326 30.7672 67.7986 30.2683C67.9646 29.7695 68.0308 29.2429 67.9933 28.7184C67.9558 28.194 67.8153 27.6822 67.58 27.212C67.3447 26.7419 67.0191 26.3227 66.6217 25.9784C66.2244 25.6341 65.7632 25.3715 65.2643 25.2055C64.7655 25.0394 64.2388 24.9733 63.7144 25.0108C63.19 25.0483 62.6781 25.1887 62.208 25.424L40 36.536L17.792 25.424C17.3219 25.189 16.8101 25.0489 16.2859 25.0118C15.7616 24.9747 15.2352 25.0412 14.7366 25.2076C14.2381 25.3741 13.7773 25.6371 13.3805 25.9817C12.9837 26.3263 12.6586 26.7457 12.424 27.216ZM84.424 15C86.7544 18.3536 88.0023 22.3403 88 26.424V59.584C87.9999 63.2982 86.9655 66.939 85.0128 70.0984C83.06 73.2578 80.2661 75.8111 76.944 77.472L48.944 91.472C46.167 92.8605 43.1048 93.5834 40 93.5834C36.8952 93.5834 33.833 92.8605 31.056 91.472L8 79.96V129.008C8.00036 133.491 9.67343 137.812 12.6918 141.127C15.7102 144.441 19.8568 146.51 24.32 146.928C25.2413 152.537 28.1232 157.636 32.4527 161.319C36.7822 165.002 42.2782 167.028 47.9621 167.038C53.646 167.048 59.1488 165.04 63.4907 161.372C67.8326 157.704 70.7318 152.614 71.672 147.008H88.328C89.2638 152.61 92.156 157.699 96.4904 161.369C100.825 165.039 106.32 167.054 112 167.054C117.68 167.054 123.175 165.039 127.51 161.369C131.844 157.699 134.736 152.61 135.672 147.008H150C152.364 147.008 154.706 146.542 156.89 145.637C159.075 144.732 161.059 143.405 162.731 141.733C164.402 140.061 165.728 138.076 166.632 135.891C167.536 133.706 168.001 131.365 168 129V85.704C167.999 83.0392 167.406 80.4079 166.264 78L152.672 49.296C151.214 46.2164 148.911 43.614 146.032 41.7914C143.153 39.9688 139.816 39.0008 136.408 39H124V33C124 28.2261 122.104 23.6478 118.728 20.2721C115.352 16.8965 110.774 15 106 15H84.424ZM146 115H156V127H146C144.409 127 142.883 126.368 141.757 125.243C140.632 124.117 140 122.591 140 121C140 119.409 140.632 117.883 141.757 116.757C142.883 115.632 144.409 115 146 115ZM141.832 54.44L153.464 79H124V51H136.4C137.539 50.999 138.654 51.3219 139.616 51.931C140.578 52.5401 141.346 53.4104 141.832 54.44ZM60 143C60 144.576 59.6896 146.136 59.0866 147.592C58.4835 149.048 57.5996 150.371 56.4853 151.485C55.371 152.6 54.0481 153.484 52.5922 154.087C51.1363 154.69 49.5759 155 48 155C46.4241 155 44.8637 154.69 43.4078 154.087C41.9519 153.484 40.629 152.6 39.5147 151.485C38.4004 150.371 37.5165 149.048 36.9134 147.592C36.3104 146.136 36 144.576 36 143C36 139.817 37.2643 136.765 39.5147 134.515C41.7652 132.264 44.8174 131 48 131C51.1826 131 54.2349 132.264 56.4853 134.515C58.7357 136.765 60 139.817 60 143ZM112 131C115.183 131 118.235 132.264 120.485 134.515C122.736 136.765 124 139.817 124 143C124 146.183 122.736 149.235 120.485 151.485C118.235 153.736 115.183 155 112 155C108.817 155 105.765 153.736 103.515 151.485C101.264 149.235 100 146.183 100 143C100 139.817 101.264 136.765 103.515 134.515C105.765 132.264 108.817 131 112 131Z" fill="#FDFDFD"/>
</svg>
