<svg width="34" height="34" viewBox="0 0 34 34" fill="none" xmlns="http://www.w3.org/2000/svg">
<circle cx="17" cy="17" r="16" fill="#FCCE07"/>
<path d="M17 1C8.1632 1 1 8.1632 1 17C1 25.8368 8.1632 33 17 33C25.8368 33 33 25.8368 33 17C33 8.1632 25.8368 1 17 1Z" stroke="#FDFDFD" stroke-width="2" stroke-linecap="round" stroke-linejoin="round"/>
<path d="M4.63379 27.1536C4.63379 27.1536 8.20019 22.6 17.0002 22.6C25.8002 22.6 29.3682 27.1536 29.3682 27.1536H4.63379ZM17.0002 17C18.2732 17 19.4941 16.4943 20.3943 15.5941C21.2945 14.6939 21.8002 13.473 21.8002 12.2C21.8002 10.9269 21.2945 9.70603 20.3943 8.80585C19.4941 7.90568 18.2732 7.39996 17.0002 7.39996C15.7271 7.39996 14.5062 7.90568 13.6061 8.80585C12.7059 9.70603 12.2002 10.9269 12.2002 12.2C12.2002 13.473 12.7059 14.6939 13.6061 15.5941C14.5062 16.4943 15.7271 17 17.0002 17V17Z" stroke="#FDFDFD" stroke-width="2" stroke-linecap="round" stroke-linejoin="round"/>
</svg>
