<svg width="44" height="32" viewBox="0 0 44 32" fill="none" xmlns="http://www.w3.org/2000/svg">
<path d="M22.1402 0.49707H22.385C24.6455 0.50532 36.0993 0.587821 39.1875 1.41832C40.1211 1.67178 40.9718 2.16583 41.6547 2.85109C42.3375 3.53635 42.8286 4.38883 43.0788 5.32332C43.3565 6.36832 43.5518 7.75157 43.6838 9.17882L43.7113 9.46482L43.7718 10.1798L43.7938 10.4658C43.9725 12.9793 43.9945 15.3333 43.9972 15.8476V16.0538C43.9945 16.5873 43.9697 19.1008 43.7718 21.7188L43.7498 22.0076L43.725 22.2936C43.5875 23.8666 43.384 25.4286 43.0788 26.5781C42.8293 27.5129 42.3386 28.3658 41.6556 29.0512C40.9726 29.7366 40.1215 30.2304 39.1875 30.4831C35.9975 31.3411 23.8727 31.4016 22.1925 31.4043H21.802C20.9522 31.4043 17.4377 31.3878 13.7527 31.2613L13.2852 31.2448L13.046 31.2338L12.5758 31.2146L12.1055 31.1953C9.053 31.0606 6.14625 30.8433 4.807 30.4803C3.87335 30.2279 3.02243 29.7345 2.33949 29.0496C1.65655 28.3647 1.16558 27.5124 0.91575 26.5781C0.6105 25.4313 0.407 23.8666 0.2695 22.2936L0.2475 22.0048L0.2255 21.7188C0.0897809 19.8554 0.0145746 17.9881 0 16.1198L0 15.7816C0.0055 15.1903 0.0275 13.1471 0.176 10.8921L0.19525 10.6088L0.2035 10.4658L0.2255 10.1798L0.286 9.46482L0.3135 9.17882C0.4455 7.75157 0.64075 6.36557 0.9185 5.32332C1.16791 4.38845 1.6587 3.53557 2.34166 2.8502C3.02463 2.16482 3.87577 1.67102 4.80975 1.41832C6.149 1.06082 9.05575 0.84082 12.1082 0.70332L12.5758 0.68407L13.0487 0.667571L13.2852 0.659321L13.7555 0.640071C16.3727 0.555851 18.991 0.509096 21.6095 0.49982H22.1402V0.49707ZM17.6 9.32457V22.5741L29.0317 15.9521L17.6 9.32457Z" fill="#FDFDFD"/>
</svg>
